<svg width="800" height="300" xmlns="http://www.w3.org/2000/svg" xmlns:svg="http://www.w3.org/2000/svg">
 <style type="text/css">.st0{fill:#323232;}
	.st1{fill:#9B4B63;}
	.st2{fill:#FFFFFF;}</style>
 <g>
  <title>Layer 1</title>
  <g stroke="null" id="svg_1">
   <g stroke="null" id="svg_2">
    <path stroke="null" id="svg_3" d="m419.3479,163.47503c0,21.42931 -5.29972,37.67411 -15.78395,48.7344c-10.48423,11.1755 -25.80734,16.70565 -46.08454,16.70565c-19.93156,0 -35.25467,-5.64536 -45.85412,-16.82086c-10.59944,-11.1755 -15.89917,-27.4203 -15.89917,-48.84961c0,-21.19889 5.29972,-37.32848 15.89917,-48.50398c10.59944,-11.1755 25.92255,-16.70565 46.08454,-16.70565c20.2772,0 35.60031,5.53014 45.96933,16.59043c10.48423,11.1755 15.66874,27.4203 15.66874,48.84961zm-87.44541,0c0,24.54002 8.52564,36.86763 25.69213,36.86763c8.64085,0 15.09269,-2.9955 19.35551,-8.98649c4.14761,-5.99099 6.33662,-15.32311 6.33662,-27.88115c0,-12.67325 -2.0738,-22.12058 -6.33662,-28.11157c-4.26282,-6.1062 -10.59944,-9.1017 -19.12508,-9.1017c-17.2817,0 -25.92255,12.44283 -25.92255,37.21327z" class="st0"/>
    <path stroke="null" id="svg_4" d="m494.23528,227.18691l0,-53.68849c0,-6.56705 -0.92169,-11.52113 -2.88028,-14.86226c-1.84338,-3.34113 -4.95409,-4.95409 -9.1017,-4.95409c-5.76057,0 -9.90818,2.30423 -12.44283,6.91268c-2.53465,4.60845 -3.80197,12.44283 -3.80197,23.50312l0,43.08904l-33.98735,0l0,-98.5057l25.69213,0l4.26282,12.2124l1.95859,0c2.88028,-4.60845 6.91268,-8.06479 11.98198,-10.48423c5.18451,-2.30423 11.06029,-3.45634 17.74255,-3.45634c10.94508,0 19.35551,3.11071 25.46171,9.44733c6.1062,6.33662 9.1017,15.2079 9.1017,26.72903l0,64.05751l-33.98735,0z" class="st0"/>
    <path stroke="null" id="svg_5" d="m542.50883,104.2564c0,-5.0693 1.38254,-8.87127 4.26282,-11.40592c2.88028,-2.53465 7.37353,-3.68676 13.71015,-3.68676c6.33662,0 10.94508,1.26732 13.82536,3.80197c2.88028,2.53465 4.37803,6.33662 4.37803,11.29071c0,10.02339 -6.1062,14.97748 -18.20339,14.97748c-11.98198,-0.11521 -17.97297,-5.0693 -17.97297,-14.97748zm34.90904,122.93051l-33.98735,0l0,-98.5057l33.98735,0l0,98.5057z" class="st0"/>
    <path stroke="null" id="svg_6" d="m686.75344,177.76124c0,16.12959 -4.37803,28.68763 -13.01888,37.67411c-8.64085,8.98649 -20.73804,13.47973 -36.40679,13.47973c-14.97748,0 -26.84424,-4.60845 -35.71552,-13.82536c-8.87127,-9.21691 -13.24931,-21.65973 -13.24931,-37.32848c0,-16.01438 4.37803,-28.57241 13.01888,-37.44369c8.64085,-8.87127 20.85325,-13.36452 36.40679,-13.36452c9.67775,0 18.20339,2.0738 25.69213,6.22141c7.37353,4.14761 13.13409,10.02339 17.16649,17.74255c4.14761,7.60395 6.1062,16.59043 6.1062,26.84424zm-63.82709,0c0,8.41043 1.15211,14.86226 3.34113,19.35551c2.30423,4.37803 6.1062,6.68226 11.40592,6.68226c5.29972,0 8.98649,-2.18902 11.1755,-6.68226c2.18902,-4.37803 3.22592,-10.82987 3.22592,-19.35551c0,-8.41043 -1.15211,-14.74705 -3.34113,-19.00987c-2.18902,-4.26282 -5.99099,-6.45184 -11.29071,-6.45184c-5.18451,0 -8.98649,2.0738 -11.1755,6.33662c-2.18902,4.26282 -3.34113,10.71466 -3.34113,19.12508z" class="st0"/>
    <path stroke="null" id="svg_7" d="m759.91265,227.18691l0,-53.68849c0,-6.56705 -0.92169,-11.52113 -2.88028,-14.86226c-1.84338,-3.34113 -4.95409,-4.95409 -9.1017,-4.95409c-5.76057,0 -9.90818,2.30423 -12.44283,6.91268c-2.53465,4.60845 -3.80197,12.44283 -3.80197,23.50312l0,43.08904l-33.98735,0l0,-98.5057l25.69213,0l4.26282,12.2124l1.95859,0c2.88028,-4.60845 6.91268,-8.06479 11.98198,-10.48423c5.18451,-2.30423 11.06029,-3.45634 17.74255,-3.45634c10.94508,0 19.35551,3.11071 25.46171,9.44733c6.1062,6.33662 9.1017,15.2079 9.1017,26.72903l0,64.05751l-33.98735,0z" class="st0"/>
   </g>
   <g stroke="null" id="svg_8">
    <path stroke="null" id="svg_9" d="m186.27534,19l-99.77303,0c-44.35637,0 -80.30231,35.94594 -80.30231,80.30231l0,99.77303c0,44.35637 35.94594,80.30231 80.30231,80.30231l99.77303,0c44.35637,0 80.30231,-35.94594 80.30231,-80.30231l0,-99.77303c0,-44.35637 -35.94594,-80.30231 -80.30231,-80.30231z" class="st1"/>
   </g>
   <g stroke="null" id="svg_10">
    <path stroke="null" id="svg_11" d="m141.57334,35.01438c-2.88028,2.0738 -11.1755,7.94958 -14.97748,16.01438c29.14847,88.13668 -41.47609,95.04936 6.45184,164.06096c-33.29608,-2.76507 -46.77581,-27.53551 -46.77581,-45.62369c0,-36.98284 27.18988,-46.54539 30.4158,-89.63443c-5.29972,-4.83888 -9.21691,-6.68226 -9.21691,-6.68226c-16.70565,47.58229 -51.7299,49.54088 -51.7299,96.31669c0,42.05214 36.40679,73.85047 80.30231,73.85047c46.77581,0 80.30231,-36.75242 80.30231,-73.85047c-0.11521,-62.21413 -60.02511,-50.69299 -74.77217,-134.45164zm12.09719,173.6235c18.54903,-26.72903 18.66424,-55.18624 0,-81.33921c40.09355,17.16649 40.09355,63.82709 0,81.33921z" class="st2"/>
   </g>
  </g>
 </g>
</svg>