<svg width="56.693" height="56.693" xmlns="http://www.w3.org/2000/svg">

 <g>
  <title>background</title>
  <rect fill="#ffffff" id="canvas_background" height="58.693" width="58.693" y="-1" x="-1"/>
 </g>
 <g>
  <title>Layer 1</title>
  <path stroke="#000000" fill="#cccccc" id="svg_2" d="m28.347,5.155c-13.6,0 -24.625,11.025 -24.625,24.625c0,13.602 11.025,24.625 24.625,24.625c13.598,0 24.623,-11.023 24.623,-24.625c0,-13.599 -11.026,-24.625 -24.623,-24.625zm13.715,36.586c0,1.096 -0.91,1.982 -2.031,1.982l-23.418,0c-1.123,0 -2.031,-0.887 -2.031,-1.982l0,-23.689c0,-1.094 0.908,-1.982 2.031,-1.982l23.417,0c1.121,0 2.031,0.889 2.031,1.982l0,23.689l0.001,0z"/>
  <path id="svg_3" d="m33.099,26.441c-2.201,0 -3.188,1.209 -3.74,2.061l0,0.041l-0.027,0c0.01,-0.012 0.02,-0.027 0.027,-0.041l0,-1.768l-4.15,0c0.055,1.17 0,12.484 0,12.484l4.15,0l0,-6.973c0,-0.375 0.027,-0.744 0.137,-1.012c0.301,-0.744 0.984,-1.52 2.129,-1.52c1.504,0 2.104,1.146 2.104,2.824l0,6.68l4.15,0l0,-7.157c-0.001,-3.836 -2.05,-5.619 -4.78,-5.619z"/>
  <path id="svg_4" d="m20.864,20.712c-1.419,0 -2.349,0.934 -2.349,2.159c0,1.197 0.9,2.158 2.294,2.158l0.027,0c1.447,0 2.348,-0.961 2.348,-2.158c-0.027,-1.225 -0.9,-2.159 -2.32,-2.159z"/>
  <rect id="svg_5" y="26.734" x="18.762" width="4.151" height="12.484"/>
 </g>
</svg>